<?xml version="1.0" standalone="no"?>
<!DOCTYPE svg PUBLIC "-//W3C//DTD SVG 20010904//EN"
 "http://www.w3.org/TR/2001/REC-SVG-20010904/DTD/svg10.dtd">
<svg version="1.0" xmlns="http://www.w3.org/2000/svg"
 width="16.000000pt" height="16.000000pt" viewBox="0 0 16.000000 16.000000"
 preserveAspectRatio="xMidYMid meet">
<metadata>
Created by potrace 1.11, written by Peter Selinger 2001-2013
</metadata>
<g transform="translate(0.000000,16.000000) scale(0.002867,-0.002867)"
fill="#000000" stroke="none">
<path d="M2425 5569 c-38 -5 -94 -11 -122 -15 -29 -3 -53 -10 -53 -15 0 -5
-20 -9 -45 -9 -25 0 -45 -4 -45 -10 0 -5 -18 -10 -40 -10 -22 0 -40 -4 -40
-10 0 -5 -16 -10 -35 -10 -19 0 -35 -4 -35 -10 0 -5 -13 -10 -30 -10 -16 0
-30 -4 -30 -10 0 -5 -8 -10 -19 -10 -38 0 -181 -49 -181 -62 0 -5 -13 -8 -30
-8 -16 0 -30 -4 -30 -10 0 -5 -9 -10 -20 -10 -11 0 -20 -4 -20 -10 0 -5 -7
-10 -15 -10 -8 0 -15 -4 -15 -10 0 -5 -8 -10 -17 -10 -10 0 -31 -7 -47 -15
-15 -8 -35 -15 -42 -15 -8 0 -14 -4 -14 -10 0 -5 -7 -10 -15 -10 -8 0 -15 -4
-15 -10 0 -5 -9 -10 -20 -10 -11 0 -20 -4 -20 -10 0 -5 -7 -10 -16 -10 -9 0
-24 -8 -33 -18 -9 -10 -35 -27 -58 -37 -24 -10 -43 -22 -43 -27 0 -4 -8 -8
-18 -8 -10 0 -24 -9 -32 -20 -8 -11 -19 -20 -25 -20 -6 0 -17 -9 -25 -20 -8
-11 -20 -20 -28 -20 -7 0 -19 -6 -27 -12 -7 -7 -25 -22 -41 -33 -15 -11 -47
-39 -70 -62 -23 -23 -44 -39 -47 -37 -2 3 -31 -22 -63 -55 -74 -75 -110 -111
-185 -184 -32 -32 -59 -62 -59 -67 0 -5 -17 -26 -37 -48 -21 -21 -47 -51 -58
-66 -11 -16 -26 -34 -33 -41 -6 -8 -12 -20 -12 -27 0 -8 -9 -20 -20 -28 -11
-8 -20 -19 -20 -25 0 -6 -9 -17 -20 -25 -11 -8 -20 -22 -20 -32 0 -10 -4 -18
-8 -18 -5 0 -17 -20 -27 -44 -10 -25 -22 -43 -27 -40 -4 3 -8 -2 -8 -10 0 -9
-4 -16 -10 -16 -5 0 -10 -9 -10 -20 0 -11 -4 -20 -10 -20 -5 0 -10 -9 -10 -20
0 -11 -4 -20 -10 -20 -5 0 -10 -7 -10 -15 0 -8 -4 -15 -10 -15 -5 0 -10 -6
-10 -14 0 -7 -7 -27 -15 -42 -8 -16 -15 -37 -15 -46 0 -10 -4 -18 -10 -18 -5
0 -10 -7 -10 -15 0 -8 -4 -15 -10 -15 -5 0 -10 -9 -10 -20 0 -11 -4 -20 -10
-20 -5 0 -10 -13 -10 -30 0 -16 -3 -30 -7 -30 -11 0 -33 -50 -33 -71 0 -10 -4
-20 -9 -23 -5 -4 -12 -29 -16 -56 -4 -28 -11 -50 -16 -50 -5 0 -9 -13 -9 -30
0 -16 -4 -30 -10 -30 -5 0 -10 -16 -10 -35 0 -19 -4 -35 -10 -35 -5 0 -10 -18
-10 -39 0 -22 -4 -41 -9 -43 -6 -1 -11 -22 -12 -45 -2 -24 -6 -43 -10 -43 -7
0 -10 -17 -28 -180 -12 -110 -12 -610 0 -720 18 -163 21 -180 28 -180 4 0 8
-19 10 -43 1 -23 6 -43 12 -45 5 -2 9 -21 9 -43 0 -21 5 -39 10 -39 6 0 10
-16 10 -35 0 -19 5 -35 10 -35 6 0 10 -13 10 -30 0 -16 4 -30 9 -30 5 0 12
-22 16 -50 4 -27 11 -52 16 -56 5 -3 9 -13 9 -23 0 -21 22 -71 33 -71 4 0 7
-13 7 -30 0 -16 5 -30 10 -30 6 0 10 -9 10 -20 0 -11 5 -20 10 -20 6 0 10 -7
10 -15 0 -8 5 -15 10 -15 6 0 10 -8 10 -17 0 -10 7 -31 15 -47 8 -15 15 -35
15 -42 0 -8 5 -14 10 -14 6 0 10 -7 10 -15 0 -8 5 -15 10 -15 6 0 10 -9 10
-20 0 -11 5 -20 10 -20 6 0 10 -7 10 -16 0 -9 8 -24 18 -33 10 -9 27 -35 37
-59 10 -23 22 -42 27 -42 4 0 8 -8 8 -18 0 -10 9 -24 20 -32 11 -8 20 -19 20
-25 0 -6 9 -17 20 -25 11 -8 20 -20 20 -28 0 -7 6 -19 12 -27 7 -7 22 -25 33
-41 11 -15 39 -47 62 -70 23 -23 39 -44 37 -47 -3 -2 22 -31 55 -63 75 -74
111 -110 185 -185 32 -33 61 -58 63 -55 3 3 23 -13 43 -34 21 -22 41 -40 45
-40 3 0 17 -10 30 -22 42 -39 54 -48 67 -48 8 0 20 -9 28 -20 8 -11 19 -20 25
-20 6 0 17 -9 25 -20 8 -11 22 -20 32 -20 10 0 18 -4 18 -8 0 -5 19 -17 42
-27 24 -10 50 -27 59 -37 9 -10 24 -18 33 -18 9 0 16 -4 16 -10 0 -5 9 -10 20
-10 11 0 20 -4 20 -10 0 -5 7 -10 15 -10 8 0 15 -4 15 -10 0 -5 6 -10 14 -10
7 0 27 -7 42 -15 16 -8 37 -15 47 -15 9 0 17 -4 17 -10 0 -5 7 -10 15 -10 8 0
15 -4 15 -10 0 -5 9 -10 20 -10 11 0 20 -4 20 -10 0 -5 14 -10 30 -10 17 0 30
-3 30 -8 0 -13 143 -62 181 -62 11 0 19 -4 19 -10 0 -5 14 -10 30 -10 17 0 30
-4 30 -10 0 -5 16 -10 35 -10 19 0 35 -4 35 -10 0 -5 18 -10 40 -10 22 0 40
-4 40 -10 0 -5 20 -10 45 -10 25 0 45 -4 45 -9 0 -9 16 -12 200 -31 140 -15
755 -9 772 8 7 7 34 12 60 12 26 0 48 4 48 8 0 4 19 9 43 11 23 1 44 6 45 12
2 5 21 9 43 9 21 0 39 5 39 10 0 6 16 10 35 10 19 0 35 5 35 10 0 6 14 10 30
10 17 0 30 4 30 9 0 5 22 12 50 16 27 4 52 11 56 16 3 5 13 9 23 9 21 0 71 22
71 33 0 4 14 7 30 7 17 0 30 5 30 10 0 6 9 10 20 10 11 0 20 5 20 10 0 6 7 10
15 10 8 0 15 5 15 10 0 6 8 10 18 10 9 0 30 7 46 15 15 8 35 15 42 15 8 0 14
5 14 10 0 6 7 10 15 10 8 0 15 5 15 10 0 6 9 10 20 10 11 0 20 5 20 10 0 6 9
10 20 10 11 0 20 5 20 10 0 6 7 10 16 10 8 0 13 4 10 8 -3 5 15 17 40 27 24
10 44 22 44 27 0 4 8 8 18 8 10 0 24 9 32 20 8 11 19 20 25 20 6 0 17 9 25 20
8 11 20 20 28 20 7 0 19 6 27 13 7 6 25 21 41 32 15 11 45 37 66 57 22 21 43
38 48 38 5 0 35 27 67 59 73 75 109 111 184 184 32 32 59 63 59 68 0 4 16 24
35 43 19 20 35 38 35 41 0 3 10 17 23 30 38 42 47 54 47 67 0 8 9 20 20 28 11
8 20 19 20 25 0 6 9 17 20 25 11 8 20 22 20 32 0 10 4 18 8 18 5 0 17 19 27
42 10 24 27 50 37 59 10 9 18 24 18 33 0 9 5 16 10 16 6 0 10 9 10 20 0 11 5
20 10 20 6 0 10 7 10 15 0 8 5 15 10 15 6 0 10 6 10 14 0 7 7 27 15 42 8 16
15 37 15 47 0 9 5 17 10 17 6 0 10 7 10 15 0 8 5 15 10 15 6 0 10 9 10 20 0
11 5 20 10 20 6 0 10 14 10 30 0 17 3 30 8 30 13 0 62 143 62 181 0 11 5 19
10 19 6 0 10 14 10 30 0 17 5 30 10 30 6 0 10 16 10 35 0 19 5 35 10 35 6 0
10 18 10 39 0 22 4 41 9 43 6 2 11 22 12 46 2 23 7 42 11 42 4 0 8 22 8 48 0
26 5 53 12 60 17 17 23 632 8 772 -19 184 -22 200 -31 200 -5 0 -9 20 -9 45 0
25 -4 45 -10 45 -5 0 -10 18 -10 40 0 22 -4 40 -10 40 -5 0 -10 16 -10 35 0
19 -4 35 -10 35 -5 0 -10 14 -10 30 0 17 -4 30 -10 30 -5 0 -10 8 -10 19 0 38
-49 181 -62 181 -5 0 -8 14 -8 30 0 17 -4 30 -10 30 -5 0 -10 9 -10 21 0 11
-4 17 -10 14 -5 -3 -10 3 -10 14 0 12 -4 21 -10 21 -5 0 -10 8 -10 18 0 9 -7
30 -15 46 -8 15 -15 35 -15 42 0 8 -4 14 -10 14 -5 0 -10 7 -10 15 0 8 -4 15
-10 15 -5 0 -10 9 -10 20 0 11 -4 20 -10 20 -5 0 -10 9 -10 20 0 11 -4 20 -10
20 -5 0 -10 7 -10 16 0 8 -4 13 -8 10 -5 -3 -17 15 -27 40 -10 24 -22 44 -27
44 -4 0 -8 8 -8 18 0 10 -9 24 -20 32 -11 8 -20 19 -20 25 0 6 -9 17 -20 25
-11 8 -20 20 -20 28 0 7 -6 20 -12 27 -27 30 -38 44 -38 50 0 3 -20 26 -45 51
-25 24 -45 49 -45 53 0 5 -27 36 -59 68 -75 73 -111 109 -184 184 -32 32 -63
59 -68 59 -4 0 -29 20 -53 45 -25 25 -48 45 -51 45 -4 0 -13 6 -20 13 -34 30
-45 37 -57 37 -8 0 -20 9 -28 20 -8 11 -19 20 -25 20 -6 0 -17 9 -25 20 -8 11
-22 20 -32 20 -10 0 -18 4 -18 8 0 5 -20 17 -44 27 -25 10 -43 22 -40 27 3 4
-2 8 -10 8 -9 0 -16 5 -16 10 0 6 -9 10 -20 10 -11 0 -20 5 -20 10 0 6 -9 10
-20 10 -11 0 -20 5 -20 10 0 6 -7 10 -15 10 -8 0 -15 5 -15 10 0 6 -9 10 -20
10 -11 0 -20 4 -20 9 0 5 -18 12 -40 16 -22 4 -38 11 -34 16 3 5 -7 9 -21 9
-15 0 -24 4 -20 10 3 6 -3 10 -14 10 -12 0 -21 5 -21 10 0 6 -13 10 -30 10
-16 0 -30 3 -30 8 0 10 -50 32 -71 32 -10 0 -20 4 -23 9 -4 5 -29 12 -56 16
-28 4 -50 11 -50 16 0 5 -13 9 -30 9 -16 0 -30 5 -30 10 0 6 -16 10 -35 10
-19 0 -35 5 -35 10 0 6 -18 10 -39 10 -22 0 -41 4 -43 9 -1 6 -22 11 -45 12
-24 2 -43 6 -43 10 0 7 -17 10 -180 28 -102 11 -626 11 -725 0z m755 -2519 c0
-887 -3 -1340 -10 -1340 -5 0 -10 -20 -10 -45 0 -25 -4 -45 -10 -45 -5 0 -10
-9 -10 -20 0 -11 -5 -30 -12 -43 -24 -47 -28 -57 -28 -72 0 -8 -4 -15 -10 -15
-5 0 -12 -11 -16 -25 -3 -14 -10 -25 -15 -25 -5 0 -9 -7 -9 -16 0 -20 -175
-194 -194 -194 -8 0 -16 -3 -18 -7 -1 -5 -32 -21 -68 -37 -36 -16 -73 -32 -82
-37 -10 -5 -29 -9 -43 -9 -14 0 -25 -4 -25 -9 0 -15 -91 -22 -312 -27 -140 -3
-208 -1 -208 6 0 5 -18 10 -39 10 -75 0 -71 -12 -71 226 l0 214 45 0 c25 0 45
-5 45 -10 0 -7 53 -10 163 -7 164 4 227 12 227 28 0 5 7 9 15 9 9 0 27 10 40
23 13 12 32 29 43 37 29 22 58 79 76 149 14 56 16 205 16 1342 l0 1279 260 0
260 0 0 -1340z"/>
</g>
</svg>
